<svg version="1.1" xmlns="http://www.w3.org/2000/svg" viewBox="0 0 143.88671875 178.73046875" width="143.88671875" height="178.73046875">
  <!-- svg-source:excalidraw -->
  
  <defs>
    <style class="style-fonts">
      @font-face {
        font-family: "Virgil";
        src: url("https://excalidraw.com/Virgil.woff2");
      }
      @font-face {
        font-family: "Cascadia";
        src: url("https://excalidraw.com/Cascadia.woff2");
      }
    </style>
  </defs>
  <g stroke-linecap="round" transform="translate(10 10) rotate(0 61.943359375 79.365234375)"><path d="M29.06 -1.93 L100.89 2.27 L113.31 3.17 L117.63 14.07 L120.84 17.81 L123.7 31.89 L124.81 129.26 L122.37 135.52 L119.59 144.8 L112.1 156.28 L104.88 156.53 L93.22 160.35 L23.49 159.1 L11.2 153.82 L6.01 148.12 L1.02 133.54 L-0.8 126.68 L0.6 24.98 L3.24 17.15 L8.8 9.17 L15.92 1.75 L29.23 0.06" stroke="none" stroke-width="0" fill="#e64980"></path><path d="M30.97 0 M30.97 0 C48.11 1.36, 62.17 -0.03, 92.92 0 M30.97 0 C54.19 0.01, 77.93 0.95, 92.92 0 M92.92 0 C114.15 0.45, 122.27 12.25, 123.89 30.97 M92.92 0 C113.06 -0.85, 121.88 11.63, 123.89 30.97 M123.89 30.97 C123.79 67.17, 124.38 103.21, 123.89 127.76 M123.89 30.97 C125.07 60.8, 124.39 89.57, 123.89 127.76 M123.89 127.76 C124.67 150.38, 115.47 158.39, 92.92 158.73 M123.89 127.76 C122.85 147.29, 113.17 157.23, 92.92 158.73 M92.92 158.73 C77.47 158.98, 63.02 160.6, 30.97 158.73 M92.92 158.73 C69.48 158.6, 45.92 158.28, 30.97 158.73 M30.97 158.73 C10.01 158.75, 1.91 146.8, 0 127.76 M30.97 158.73 C10.06 159.99, 1.57 147.25, 0 127.76 M0 127.76 C0.86 89.56, 1.03 54.61, 0 30.97 M0 127.76 C1.3 104.7, 0.55 81.2, 0 30.97 M0 30.97 C1.71 10.14, 12.27 -1.21, 30.97 0 M0 30.97 C0.17 9.93, 11.29 -0.05, 30.97 0" stroke="#000000" stroke-width="1" fill="none"></path></g></svg>