<svg version="1.1" xmlns="http://www.w3.org/2000/svg" viewBox="0 0 143.88671875 178.73046875" width="143.88671875" height="178.73046875">
  <!-- svg-source:excalidraw -->
  
  <defs>
    <style class="style-fonts">
      @font-face {
        font-family: "Virgil";
        src: url("https://excalidraw.com/Virgil.woff2");
      }
      @font-face {
        font-family: "Cascadia";
        src: url("https://excalidraw.com/Cascadia.woff2");
      }
    </style>
  </defs>
  <g stroke-linecap="round" transform="translate(10 10) rotate(0 61.943359375 79.365234375)"><path d="M31.27 -0.25 L99.64 -1.41 L111.89 5.27 L120.29 13.96 L122.15 16.98 L121.97 29.94 L123.38 128.5 L123.08 133.65 L120.1 147.46 L111.26 153.75 L108.15 156.31 L94 159.78 L24.52 158.02 L13.92 155.17 L3.94 146.57 L1.14 136.1 L-0.66 129.36 L-1.24 25.4 L3.03 19.14 L8.79 7.43 L18.99 2.46 L31.98 1.5" stroke="none" stroke-width="0" fill="#228be6"></path><path d="M30.97 0 M30.97 0 C51.96 -0.05, 75.05 1.21, 92.92 0 M30.97 0 C52.72 0.35, 73.43 -0.63, 92.92 0 M92.92 0 C114.53 0.77, 123.42 9.7, 123.89 30.97 M92.92 0 C112.15 -0.5, 125.78 11.45, 123.89 30.97 M123.89 30.97 C123.69 68.42, 122.02 104.56, 123.89 127.76 M123.89 30.97 C122.42 51.73, 122.66 72.96, 123.89 127.76 M123.89 127.76 C123.7 147.36, 114.14 158.38, 92.92 158.73 M123.89 127.76 C123.29 147.16, 113.31 160.1, 92.92 158.73 M92.92 158.73 C69.94 158.81, 41.68 159.36, 30.97 158.73 M92.92 158.73 C71.96 158.01, 51 158.76, 30.97 158.73 M30.97 158.73 C9.68 157.23, 0.52 147.06, 0 127.76 M30.97 158.73 C8.65 157.34, 0.71 146.7, 0 127.76 M0 127.76 C-0.33 108.54, 1.46 90.64, 0 30.97 M0 127.76 C-0.65 107.85, -1.2 89.13, 0 30.97 M0 30.97 C-0.67 12.09, 10.68 -1.95, 30.97 0 M0 30.97 C-2.18 8.36, 9.51 -0.43, 30.97 0" stroke="#000000" stroke-width="1" fill="none"></path></g></svg>