<svg version="1.1" xmlns="http://www.w3.org/2000/svg" viewBox="0 0 143.88671875 178.73046875" width="143.88671875" height="178.73046875">
  <!-- svg-source:excalidraw -->
  
  <defs>
    <style class="style-fonts">
      @font-face {
        font-family: "Virgil";
        src: url("https://excalidraw.com/Virgil.woff2");
      }
      @font-face {
        font-family: "Cascadia";
        src: url("https://excalidraw.com/Cascadia.woff2");
      }
    </style>
  </defs>
  <g stroke-linecap="round" transform="translate(10 10) rotate(0 61.943359375 79.365234375)"><path d="M32.63 1.47 L99.46 0.96 L110.83 5.5 L118.48 10.4 L119.96 16.37 L124.72 30.67 L122.15 127.86 L123.4 135.09 L118.74 147.82 L112.97 154.51 L106.39 154.85 L91.72 160.65 L22.89 160.15 L13.08 155.13 L3.78 145.84 L2.01 136.32 L-1.18 127.56 L0.4 25.24 L1.12 18.2 L9.08 8.44 L15.47 0.53 L31.61 -0.6" stroke="none" stroke-width="0" fill="#228be6"></path><path d="M30.97 0 M30.97 0 C51.02 0.29, 70.97 1.31, 92.92 0 M30.97 0 C50.52 -0.54, 71.19 -0.34, 92.92 0 M92.92 0 C114.66 -0.7, 125.05 9.42, 123.89 30.97 M92.92 0 C113.42 -1.77, 125.55 10.86, 123.89 30.97 M123.89 30.97 C122.44 65.32, 122.46 98.55, 123.89 127.76 M123.89 30.97 C123.92 59.39, 123.4 89.43, 123.89 127.76 M123.89 127.76 C122.97 150.29, 111.87 159.69, 92.92 158.73 M123.89 127.76 C124.34 149.26, 111.34 159.67, 92.92 158.73 M92.92 158.73 C81.97 160.82, 66.87 157.3, 30.97 158.73 M92.92 158.73 C71.69 158.1, 48.07 158.83, 30.97 158.73 M30.97 158.73 C10.73 159.81, 0.9 148.92, 0 127.76 M30.97 158.73 C10.88 158.11, 0.04 148.88, 0 127.76 M0 127.76 C-0.73 92.48, -0.58 56.01, 0 30.97 M0 127.76 C-0.98 94.76, 0.67 63.2, 0 30.97 M0 30.97 C-0.89 11.12, 8.83 -1.27, 30.97 0 M0 30.97 C1.25 8.93, 9.79 0.84, 30.97 0" stroke="#000000" stroke-width="1" fill="none"></path></g></svg>