<svg version="1.1" xmlns="http://www.w3.org/2000/svg" viewBox="0 0 143.88671875 178.73046875" width="143.88671875" height="178.73046875">
  <!-- svg-source:excalidraw -->
  
  <defs>
    <style class="style-fonts">
      @font-face {
        font-family: "Virgil";
        src: url("https://excalidraw.com/Virgil.woff2");
      }
      @font-face {
        font-family: "Cascadia";
        src: url("https://excalidraw.com/Cascadia.woff2");
      }
    </style>
  </defs>
  <g stroke-linecap="round" transform="translate(10 10) rotate(0 61.943359375 79.365234375)"><path d="M31 1.57 L98.88 -1.37 L111.38 5.93 L119.94 10.55 L122.85 16.01 L123.26 31.34 L125.29 127.88 L123.81 136.55 L117.79 147.61 L113.77 155.3 L106.76 156.07 L93.2 157.53 L23.74 158.7 L13.29 155.14 L6.02 147.88 L0.72 136.74 L1.11 129.48 L-0.86 25.58 L3.88 18.66 L7.14 6.49 L16.85 0.43 L30.03 -0.82" stroke="none" stroke-width="0" fill="#40c057"></path><path d="M30.97 0 M30.97 0 C50.54 -0.09, 72.91 -1.93, 92.92 0 M30.97 0 C51.16 0.63, 71.51 -1.16, 92.92 0 M92.92 0 C111.87 -0.7, 125.19 10.8, 123.89 30.97 M92.92 0 C114.56 -2.21, 126.09 12.57, 123.89 30.97 M123.89 30.97 C125.06 67.72, 124.53 103.65, 123.89 127.76 M123.89 30.97 C123.66 69.96, 124.15 107.79, 123.89 127.76 M123.89 127.76 C122.38 149.22, 111.81 157.33, 92.92 158.73 M123.89 127.76 C125.82 150.17, 115 159.87, 92.92 158.73 M92.92 158.73 C72.49 160.01, 54.92 157.72, 30.97 158.73 M92.92 158.73 C69.96 159.21, 45.46 159.35, 30.97 158.73 M30.97 158.73 C8.74 158.9, -1.99 146.58, 0 127.76 M30.97 158.73 C11.94 157.26, 0.27 149.67, 0 127.76 M0 127.76 C-0.44 99.97, -0.72 70.34, 0 30.97 M0 127.76 C-0.44 88.53, -1.03 50.16, 0 30.97 M0 30.97 C1.79 8.45, 9.14 -1.98, 30.97 0 M0 30.97 C0.76 11.08, 12.31 -0.45, 30.97 0" stroke="#000000" stroke-width="1" fill="none"></path></g></svg>