<svg version="1.1" xmlns="http://www.w3.org/2000/svg" viewBox="0 0 143.88671875 178.73046875" width="143.88671875" height="178.73046875">
  <!-- svg-source:excalidraw -->
  
  <defs>
    <style class="style-fonts">
      @font-face {
        font-family: "Virgil";
        src: url("https://excalidraw.com/Virgil.woff2");
      }
      @font-face {
        font-family: "Cascadia";
        src: url("https://excalidraw.com/Cascadia.woff2");
      }
    </style>
  </defs>
  <g stroke-linecap="round" transform="translate(10 10) rotate(0 61.943359375 79.365234375)"><path d="M30.41 0.07 L101.58 1.34 L112.36 2.39 L119.11 10.12 L120.73 16.78 L125.49 32.27 L123.82 128.23 L122.9 134.48 L120.75 146.11 L110.4 155.34 L105.6 156.99 L94.5 160.68 L25.19 158.35 L12.49 152.64 L3.73 145.01 L0.78 136.43 L-0.75 127.65 L0.38 22.32 L0.8 16.61 L6.84 8.49 L16.68 2.44 L30.07 -1.58" stroke="none" stroke-width="0" fill="#fd7e14"></path><path d="M30.97 0 M30.97 0 C53.95 -0.31, 71.77 1.43, 92.92 0 M30.97 0 C52.86 0.76, 75.86 0.84, 92.92 0 M92.92 0 C114.97 1.08, 125.83 10.29, 123.89 30.97 M92.92 0 C115.4 0.21, 122.48 11.43, 123.89 30.97 M123.89 30.97 C124.67 66.35, 123.96 101.84, 123.89 127.76 M123.89 30.97 C123.64 66.54, 124.15 103.65, 123.89 127.76 M123.89 127.76 C123.53 148.65, 114.64 160.62, 92.92 158.73 M123.89 127.76 C126.05 146.39, 115.25 158.11, 92.92 158.73 M92.92 158.73 C73.59 156.64, 57.92 160.37, 30.97 158.73 M92.92 158.73 C75.49 158.69, 58.09 160.12, 30.97 158.73 M30.97 158.73 C12.16 157.57, -1.04 149.32, 0 127.76 M30.97 158.73 C9.02 160.14, 0.43 148.92, 0 127.76 M0 127.76 C-0.76 108.23, 2.2 89.63, 0 30.97 M0 127.76 C0.67 96.03, 0.17 64.53, 0 30.97 M0 30.97 C1.15 9.27, 8.62 -1.99, 30.97 0 M0 30.97 C-1.21 11.28, 9.97 -2, 30.97 0" stroke="#000000" stroke-width="1" fill="none"></path></g></svg>