<svg version="1.1" xmlns="http://www.w3.org/2000/svg" viewBox="0 0 143.88671875 178.73046875" width="143.88671875" height="178.73046875">
  <!-- svg-source:excalidraw -->
  
  <defs>
    <style class="style-fonts">
      @font-face {
        font-family: "Virgil";
        src: url("https://excalidraw.com/Virgil.woff2");
      }
      @font-face {
        font-family: "Cascadia";
        src: url("https://excalidraw.com/Cascadia.woff2");
      }
    </style>
  </defs>
  <g stroke-linecap="round" transform="translate(10 10) rotate(0 61.943359375 79.365234375)"><path d="M29.77 0.03 L100.63 1.67 L112.56 6.02 L120.78 12.33 L123.67 18.53 L125.61 29.63 L125.76 129.7 L124.64 134.41 L118.28 146.06 L110.28 153.43 L105.65 157.33 L92.39 158.68 L23.05 158.14 L13.58 152.43 L5.03 146.48 L1.63 134.07 L1.96 126.18 L-1.12 22.02 L1.23 18.73 L8.22 8.61 L15.5 3.85 L32.92 1.48" stroke="none" stroke-width="0" fill="#fa5252"></path><path d="M30.97 0 M30.97 0 C53.28 -0.06, 74.76 1.64, 92.92 0 M30.97 0 C51.27 0.37, 70.42 -0.54, 92.92 0 M92.92 0 C114.38 -1.75, 122.49 12, 123.89 30.97 M92.92 0 C115.33 1.43, 125.02 10.78, 123.89 30.97 M123.89 30.97 C124.85 54.59, 122.56 76.67, 123.89 127.76 M123.89 30.97 C124.32 64.62, 124.47 97.24, 123.89 127.76 M123.89 127.76 C124.05 146.42, 111.73 160.14, 92.92 158.73 M123.89 127.76 C122.42 148.68, 114.83 158.69, 92.92 158.73 M92.92 158.73 C69.46 159.09, 44.18 160.82, 30.97 158.73 M92.92 158.73 C69.28 158.51, 46.5 159.77, 30.97 158.73 M30.97 158.73 C8.45 157.54, -1.98 149.06, 0 127.76 M30.97 158.73 C11.08 160.72, -0.45 149.74, 0 127.76 M0 127.76 C-0.67 95.45, 1.35 59.69, 0 30.97 M0 127.76 C1.63 90.23, 1.77 52.63, 0 30.97 M0 30.97 C-1.01 8.49, 10.19 1.93, 30.97 0 M0 30.97 C0.72 11.61, 9.72 0.15, 30.97 0" stroke="#000000" stroke-width="1" fill="none"></path></g></svg>